<svg xmlns="http://www.w3.org/2000/svg" viewBox="0 0 291.77 61.05"><g id="Camada_2" data-name="Camada 2"><g id="Camada_1-2" data-name="Camada 1"><path d="M16.38,16.46V19H27.9V26.8H16.69V60.5H6.9V26.8H0V19H6.9V16.3c0-8.78,5.25-14.5,15-14.5,3.37,0,6.67.71,8.86,2.28L28,11.44a9.64,9.64,0,0,0-5.41-1.72C18.5,9.72,16.38,12,16.38,16.46Z"/><path d="M34.72,5.88A6,6,0,0,1,41,0c3.6,0,6.27,2.43,6.27,5.64A6,6,0,0,1,41,11.75,6,6,0,0,1,34.72,5.88Zm1.33,12.77h9.8V60.5h-9.8Z"/><path d="M96.31,18.65,78.37,60.5H68.26l-18-41.85H60.5l13,31,13.4-31Z"/><path d="M138.87,42.71H106c1.18,6.11,6.27,10,13.56,10A15,15,0,0,0,131,48.2l5.25,6c-3.76,4.47-9.64,6.82-16.85,6.82-14,0-23.11-9-23.11-21.47s9.17-21.4,21.63-21.4c12.22,0,21.16,8.54,21.16,21.63C139,40.59,139,41.77,138.87,42.71ZM106,36.21H129.7c-.78-6-5.41-10.19-11.83-10.19A11.57,11.57,0,0,0,106,36.21Z"/><path d="M145.29,2.35h9.8V60.5h-9.8Z"/><path d="M199.84,36V60.5h-9.25V55.41c-2.35,3.6-6.89,5.64-13.16,5.64-9.57,0-15.6-5.25-15.6-12.54,0-7,4.7-12.46,17.4-12.46H190v-.63c0-5.72-3.45-9.09-10.42-9.09a20.73,20.73,0,0,0-12.7,4.16l-3.84-7.14c4.47-3.44,11-5.17,17.71-5.17C192.86,18.18,199.84,23.9,199.84,36ZM190,47.41V42.55H179.93c-6.66,0-8.46,2.51-8.46,5.57,0,3.53,3,5.8,8,5.8C184.24,53.92,188.4,51.72,190,47.41Z"/><path d="M252.11,39.58c0,13-9,21.47-21.24,21.47-5.72,0-10.58-2-13.87-6V60.5h-9.32V2.35h9.79v21.4c3.37-3.77,8.07-5.57,13.4-5.57C243.1,18.18,252.11,26.57,252.11,39.58Zm-10,0c0-8-5.33-13.09-12.38-13.09s-12.46,5.09-12.46,13.09,5.4,13.08,12.46,13.08S242.16,47.57,242.16,39.58Z"/><path d="M255.09,56.35l3.76-7.45a28.16,28.16,0,0,0,14.58,4.16c6.19,0,8.78-1.73,8.78-4.63,0-8-25.87-.47-25.87-17.16,0-7.92,7.13-13.09,18.42-13.09,5.56,0,11.91,1.33,15.67,3.61l-3.76,7.44a22.89,22.89,0,0,0-12-3.13c-5.95,0-8.78,2-8.78,4.7,0,8.46,25.87.94,25.87,17.32,0,7.84-7.21,12.93-19,12.93C265.83,61.05,258.85,59,255.09,56.35Z"/></g></g></svg>